<?xml version="1.0" standalone="no"?>
<!DOCTYPE svg PUBLIC "-//W3C//DTD SVG 20010904//EN"
 "http://www.w3.org/TR/2001/REC-SVG-20010904/DTD/svg10.dtd">
<svg version="1.0" xmlns="http://www.w3.org/2000/svg"
 width="274.000000pt" height="274.000000pt" viewBox="0 0 274.000000 274.000000"
 preserveAspectRatio="xMidYMid meet">
<metadata>
Created by potrace 1.14, written by Peter Selinger 2001-2017
</metadata>
<g transform="translate(0.000000,274.000000) scale(0.100000,-0.100000)"
fill="#000000" stroke="none">
<path d="M1032 2701 c-6 -3 -92 -226 -192 -496 -100 -269 -208 -560 -240 -645
-72 -193 -366 -985 -392 -1060 -11 -30 -24 -63 -29 -72 -9 -17 7 -18 293 -18
l303 0 79 230 c69 201 81 230 100 231 70 3 837 1 839 -2 1 -2 29 -83 61 -179
33 -96 68 -199 78 -227 l19 -53 309 0 309 0 -21 53 c-42 110 -28 70 -245 657
-35 96 -86 234 -113 305 -27 72 -100 270 -164 440 -63 171 -159 429 -214 575
l-98 265 -336 1 c-185 1 -340 -1 -346 -5z m341 -635 c3 -7 -1 -23 -9 -35 -8
-11 -11 -21 -5 -21 5 0 15 8 20 18 6 9 11 12 11 7 0 -6 -6 -17 -12 -24 -11
-11 -10 -13 5 -8 10 4 16 3 12 -2 -3 -5 1 -11 7 -14 10 -3 8 -9 -5 -24 -16
-19 -14 -33 5 -33 5 0 7 4 3 9 -3 5 -1 12 4 16 6 3 8 -6 5 -21 -3 -16 -1 -23
6 -19 5 3 7 0 4 -8 -4 -12 -10 -10 -30 10 -13 13 -24 28 -24 34 0 6 -3 8 -8 5
-4 -2 -18 2 -32 10 l-25 15 25 -7 c21 -6 23 -5 13 7 -10 12 -11 46 -3 57 3 3
7 19 9 32 2 15 18 12 24 -4z m-13 -134 c3 -2 -2 -2 -10 0 -8 3 -24 1 -35 -5
-17 -9 -18 -8 -8 5 7 8 9 18 5 23 -7 8 39 -14 48 -23z m-23 -34 c-3 -8 -6 -5
-6 6 -1 11 2 17 5 13 3 -3 4 -12 1 -19z m50 2 c3 -10 2 -11 -4 -4 -4 6 -15 14
-23 17 -11 5 -9 6 4 4 11 -1 21 -9 23 -17z m-66 -117 c-12 -20 -14 -14 -5 12
4 9 9 14 11 11 3 -2 0 -13 -6 -23z m57 -18 c-3 -3 -9 2 -12 12 -6 14 -5 15 5
6 7 -7 10 -15 7 -18z m-43 -5 c-3 -5 -12 -10 -18 -10 -7 0 -6 4 3 10 19 12 23
12 15 0z m-31 -18 c3 -5 -1 -9 -9 -9 -8 0 -12 4 -9 9 3 4 7 8 9 8 2 0 6 -4 9
-8z m-34 -62 c0 -5 -5 -10 -11 -10 -5 0 -7 5 -4 10 3 6 8 10 11 10 2 0 4 -4 4
-10z m237 -5 c0 -8 -4 -12 -9 -9 -5 3 -6 10 -3 15 9 13 12 11 12 -6z m-40 -27
c-3 -8 -6 -5 -6 6 -1 11 2 17 5 13 3 -3 4 -12 1 -19z m0 -35 c0 -9 -4 -10 -14
-2 -7 6 -13 12 -13 14 0 1 6 2 13 2 8 0 14 -6 14 -14z m55 -28 c3 0 9 -3 13
-7 4 -3 0 -5 -9 -4 -9 1 -22 8 -29 16 -10 10 -9 11 3 4 8 -5 18 -9 22 -9z
m-95 -120 c0 -8 -4 -12 -9 -9 -5 3 -6 10 -3 15 9 13 12 11 12 -6z m107 -1 c3
-8 2 -12 -4 -9 -6 3 -10 10 -10 16 0 14 7 11 14 -7z m46 2 c0 -2 -7 -7 -16
-10 -8 -3 -12 -2 -9 4 6 10 25 14 25 6z m-170 -20 c0 -3 -4 -8 -10 -11 -5 -3
-10 -1 -10 4 0 6 5 11 10 11 6 0 10 -2 10 -4z m111 -13 c13 -16 12 -17 -3 -4
-10 7 -18 15 -18 17 0 8 8 3 21 -13z m69 13 c0 -3 -4 -8 -10 -11 -5 -3 -10 -1
-10 4 0 6 5 11 10 11 6 0 10 -2 10 -4z m0 -35 c-6 -13 -17 -17 -30 -14 -11 3
-20 8 -20 10 0 3 9 3 19 0 12 -3 22 1 25 9 3 8 8 14 11 14 3 0 1 -9 -5 -19z
m-125 -30 c-9 -8 -36 -10 -30 -2 2 4 11 8 20 8 8 0 13 -3 10 -6z m92 -13 c-3
-8 -6 -5 -6 6 -1 11 2 17 5 13 3 -3 4 -12 1 -19z m-172 -8 c3 -5 1 -10 -4 -10
-6 0 -11 5 -11 10 0 6 2 10 4 10 3 0 8 -4 11 -10z m115 5 c0 -2 -6 -8 -13 -14
-10 -8 -14 -7 -14 2 0 8 6 14 14 14 7 0 13 -1 13 -2z m110 -5 c0 -5 -4 -10
-10 -10 -5 0 -10 5 -10 10 0 6 5 10 10 10 6 0 10 -4 10 -10z m-264 -36 c1 -9
0 -13 -4 -10 -3 4 -7 14 -8 22 -1 9 0 13 4 10 3 -4 7 -14 8 -22z m273 -18 c-3
-3 -11 5 -18 17 -13 21 -12 21 5 5 10 -10 16 -20 13 -22z m-169 14 c0 -5 -2
-10 -4 -10 -3 0 -8 5 -11 10 -3 6 -1 10 4 10 6 0 11 -4 11 -10z m40 1 c0 -6
-4 -12 -8 -15 -5 -3 -9 1 -9 9 0 8 4 15 9 15 4 0 8 -4 8 -9z m96 -10 c1 -6 0
-7 -3 -1 -2 5 -9 8 -13 5 -5 -3 -11 -1 -14 4 -4 5 2 8 11 7 9 -2 18 -8 19 -15z
m-31 -11 c3 -6 -1 -7 -9 -4 -18 7 -21 14 -7 14 6 0 13 -4 16 -10z"/>
<path d="M1349 1992 c6 -11 8 -21 6 -24 -2 -2 5 -4 15 -5 33 -3 32 15 0 32
-30 16 -31 16 -21 -3z"/>
<path d="M1049 298 c-1 -7 -2 -19 -3 -27 -1 -11 -15 -15 -48 -16 -77 -3 -123
-51 -95 -102 20 -34 41 -42 125 -41 l82 1 0 98 0 99 -30 0 c-17 0 -31 -6 -31
-12z m-2 -113 c0 -27 -4 -35 -22 -39 -31 -8 -52 1 -58 24 -8 32 28 62 63 53
10 -3 16 -17 17 -38z"/>
<path d="M468 243 c-39 -16 -48 -29 -48 -66 0 -37 49 -67 112 -67 59 0 78 7
78 31 0 19 -11 25 -24 12 -11 -12 -69 -12 -83 -1 -22 17 -16 58 10 67 12 5 27
7 32 6 54 -16 65 -15 65 5 0 12 -7 21 -17 21 -69 6 -96 4 -125 -8z"/>
<path d="M689 249 c-57 -21 -63 -99 -9 -126 43 -22 125 -16 154 10 39 34 39
78 0 103 -29 20 -107 26 -145 13z m92 -28 c13 -2 18 -44 8 -63 -19 -36 -79
-16 -79 27 0 35 21 46 71 36z"/>
<path d="M1222 251 c-77 -20 -84 -104 -11 -130 36 -12 128 -15 145 -3 6 4 14
15 17 26 6 15 4 17 -10 11 -36 -14 -91 -17 -112 -6 -36 20 -24 26 51 26 72 0
73 0 70 25 -1 14 -8 31 -15 37 -16 17 -93 24 -135 14z m86 -38 c2 -9 -9 -13
-37 -13 -39 0 -55 13 -28 24 21 8 60 2 65 -11z"/>
<path d="M1427 252 c-9 -2 -17 -10 -17 -17 0 -10 16 -15 52 -17 l51 -3 -51
-35 c-81 -55 -72 -68 48 -68 94 0 99 2 89 19 -6 13 -20 18 -42 17 -60 -1 -61
2 -9 39 74 51 68 67 -29 68 -41 0 -83 -1 -92 -3z"/>
<path d="M1695 252 c-31 -6 -62 -41 -60 -65 1 -12 3 -28 4 -34 2 -21 57 -43
106 -43 79 0 126 39 110 90 -14 44 -86 68 -160 52z m83 -35 c17 -11 15 -52 -4
-67 -21 -19 -68 -1 -72 26 -6 40 38 64 76 41z"/>
<path d="M1909 252 c-4 -27 -5 -119 -1 -129 2 -7 17 -13 33 -13 27 0 28 2 31
53 3 49 5 52 32 55 36 4 43 -7 42 -64 -1 -43 -1 -44 31 -44 l33 0 0 59 c0 38
-5 63 -14 70 -20 17 -76 22 -99 9 -11 -5 -22 -6 -26 -2 -7 11 -61 16 -62 6z"/>
<path d="M2223 252 c-64 -20 -85 -87 -38 -118 52 -34 185 -30 185 5 0 16 -4
17 -40 8 -26 -7 -49 -8 -66 -2 -51 18 -37 31 33 29 38 -1 71 3 74 9 10 15 -2
47 -23 58 -25 13 -97 20 -125 11z m71 -28 c29 -11 16 -24 -24 -24 -38 0 -49 8
-33 23 8 9 36 9 57 1z"/>
</g>
</svg>
